<svg xmlns="http://www.w3.org/2000/svg" version="1.1" viewBox="0.00 0.00 512.00 512.00" width="16" height="16">
<g stroke-width="2.00" fill="none" stroke-linecap="butt">
<path stroke="#c7c7c7" d="&#10;  M 397.98 147.00&#10;  L 341.02 146.98"/>
<path stroke="#dddddd" d="&#10;  M 341.02 146.98&#10;  L 340.89 90.56&#10;  A 0.56 0.55 0.0 0 0 340.33 90.01&#10;  L 284.67 90.01&#10;  A 0.59 0.59 0.0 0 0 284.08 90.60&#10;  L 284.03 147.02"/>
<path stroke="#dddddd" d="&#10;  M 284.01 374.02&#10;  L 228.60 374.04&#10;  A 0.51 0.50 -0.0 0 0 228.09 374.54&#10;  L 228.03 431.01"/>
<path stroke="#c7c7c7" d="&#10;  M 228.03 431.01&#10;  L 170.78 431.02"/>
<path stroke="#dddddd" d="&#10;  M 170.78 431.02&#10;  L 114.02 430.97"/>
<path stroke="#a4a4a4" d="&#10;  M 170.78 431.02&#10;  L 171.06 487.96"/>
<path stroke="#a4a4a4" d="&#10;  M 283.99 431.03&#10;  L 228.03 431.01"/>
</g>
<path fill="#ffffff" d="&#10;  M 397.98 147.00&#10;  L 341.02 146.98&#10;  L 340.89 90.56&#10;  A 0.56 0.55 0.0 0 0 340.33 90.01&#10;  L 284.67 90.01&#10;  A 0.59 0.59 0.0 0 0 284.08 90.60&#10;  L 284.03 147.02&#10;  L 284.01 374.02&#10;  L 228.60 374.04&#10;  A 0.51 0.50 -0.0 0 0 228.09 374.54&#10;  L 228.03 431.01&#10;  L 170.78 431.02&#10;  L 114.02 430.97&#10;  L 114.03 374.90&#10;  A 0.89 0.88 90.0 0 1 114.91 374.01&#10;  Q 210.46 373.98 224.00 374.00&#10;  Q 226.07 374.00 227.70 373.59&#10;  A 0.39 0.38 -6.7 0 0 228.00 373.22&#10;  L 228.00 34.07&#10;  A 1.10 1.10 0.0 0 1 229.10 32.97&#10;  L 340.09 32.97&#10;  A 0.91 0.91 0.0 0 1 341.00 33.88&#10;  L 341.00 88.96&#10;  A 1.03 1.02 0.0 0 0 342.03 89.98&#10;  L 397.31 89.98&#10;  A 0.66 0.65 90.0 0 1 397.96 90.64&#10;  L 397.98 147.00&#10;  Z"/>
<path fill="#bababa" d="&#10;  M 341.02 146.98&#10;  L 284.03 147.02&#10;  L 284.08 90.60&#10;  A 0.59 0.59 0.0 0 1 284.67 90.01&#10;  L 340.33 90.01&#10;  A 0.56 0.55 -0.0 0 1 340.89 90.56&#10;  L 341.02 146.98&#10;  Z"/>
<path fill="#8e8e8e" d="&#10;  M 397.98 147.00&#10;  L 397.92 203.43&#10;  A 0.57 0.57 0.0 0 1 397.35 204.00&#10;  L 341.61 204.00&#10;  A 0.56 0.55 89.5 0 1 341.06 203.45&#10;  L 341.02 146.98&#10;  L 397.98 147.00&#10;  Z"/>
<path fill="#bababa" d="&#10;  M 284.01 374.02&#10;  L 283.99 431.03&#10;  L 228.03 431.01&#10;  L 228.09 374.54&#10;  A 0.51 0.50 -0.0 0 1 228.60 374.04&#10;  L 284.01 374.02&#10;  Z"/>
<path fill="#bababa" d="&#10;  M 170.78 431.02&#10;  L 171.06 487.96&#10;  L 114.52 487.97&#10;  A 0.49 0.49 0.0 0 1 114.03 487.48&#10;  L 114.02 430.97&#10;  L 170.78 431.02&#10;  Z"/>
<path fill="#8e8e8e" d="&#10;  M 228.03 431.01&#10;  L 283.99 431.03&#10;  L 284.00 487.38&#10;  A 0.50 0.49 -0.0 0 1 283.50 487.87&#10;  L 171.06 487.96&#10;  L 170.78 431.02&#10;  L 228.03 431.01&#10;  Z"/>
</svg>