<svg xmlns="http://www.w3.org/2000/svg" version="1.1" viewBox="0.00 0.00 128.00 128.00" width="128.00" height="128.00">
<g stroke-width="2.00" fill="none" stroke-linecap="butt">
<path stroke="#f4f1f4" stroke-opacity="0.651" d="&#10;  M 20.22 10.61&#10;  Q 19.97 11.50 20.13 12.31&#10;  A 0.74 0.73 -1.6 0 0 20.76 12.90&#10;  Q 21.45 12.99 22.24 12.76"/>
<path stroke="#e9e7e5" stroke-opacity="0.600" d="&#10;  M 27.12 16.56&#10;  L 26.96 20.26"/>
<path stroke="#e0e0e0" d="&#10;  M 26.96 20.26&#10;  Q 23.76 19.66 20.65 20.18&#10;  A 0.61 0.60 84.7 0 0 20.14 20.80&#10;  L 20.36 26.99"/>
<path stroke="#e9e7e5" stroke-opacity="0.600" d="&#10;  M 20.36 26.99&#10;  L 16.78 27.11"/>
<path stroke="#f4f1f4" stroke-opacity="0.651" d="&#10;  M 12.83 22.03&#10;  Q 13.07 21.36 12.90 20.65&#10;  A 0.79 0.79 0.0 0 0 12.24 20.06&#10;  Q 11.45 19.94 10.80 20.24"/>
<path stroke="#b5b3b1" stroke-opacity="0.600" d="&#10;  M 20.36 26.99&#10;  L 26.25 26.95&#10;  A 0.57 0.57 0.0 0 0 26.81 26.39&#10;  L 26.96 20.26"/>
<path stroke="#e0e0e0" d="&#10;  M 60.97 13.06&#10;  L 60.70 20.02"/>
<path stroke="#b5b3b1" stroke-opacity="0.600" d="&#10;  M 60.70 20.02&#10;  L 56.98 20.04"/>
<path stroke="#f4f1f4" stroke-opacity="0.651" d="&#10;  M 115.10 16.52&#10;  L 115.01 67.12"/>
<path stroke="#e0e0e0" d="&#10;  M 115.01 67.12&#10;  L 108.07 67.07"/>
<path stroke="#efeef0" stroke-opacity="0.608" d="&#10;  M 107.98 22.35&#10;  L 107.84 20.67&#10;  A 0.60 0.60 0.0 0 0 107.24 20.11&#10;  L 75.46 20.06"/>
<path stroke="#e9e7e5" stroke-opacity="0.600" d="&#10;  M 75.46 20.06&#10;  L 60.70 20.02"/>
<path stroke="#c4c2c4" stroke-opacity="0.651" d="&#10;  M 115.01 72.99&#10;  L 115.01 67.12"/>
<path stroke="#b0b0b2" stroke-opacity="0.651" d="&#10;  M 115.01 72.99&#10;  Q 115.43 74.55 111.38 73.95"/>
<path stroke="#efeef0" stroke-opacity="0.608" d="&#10;  M 101.05 30.47&#10;  L 101.06 93.05&#10;  A 0.92 0.91 88.4 0 1 100.20 93.97&#10;  L 97.23 94.15"/>
<path stroke="#f4f1f4" stroke-opacity="0.651" d="&#10;  M 94.15 97.54&#10;  L 93.77 100.37&#10;  A 0.63 0.62 3.2 0 1 93.16 100.91&#10;  L 82.71 101.05"/>
<path stroke="#e9e7e5" stroke-opacity="0.600" d="&#10;  M 82.71 101.05&#10;  L 33.71 101.04"/>
<path stroke="#e0e0e0" d="&#10;  M 33.71 101.04&#10;  L 33.83 94.74&#10;  A 0.55 0.55 0.0 0 0 33.27 94.18&#10;  L 27.04 94.26"/>
<path stroke="#b5b3b1" stroke-opacity="0.600" d="&#10;  M 33.71 101.04&#10;  L 30.22 101.07"/>
<path stroke="#b5b3b1" stroke-opacity="0.600" d="&#10;  M 20.07 57.32&#10;  L 20.03 60.73"/>
<path stroke="#e0e0e0" d="&#10;  M 20.03 60.73&#10;  L 13.05 60.79"/>
<path stroke="#f4f1f4" stroke-opacity="0.651" d="&#10;  M 20.05 91.21&#10;  L 20.15 107.33&#10;  A 0.54 0.54 0.0 0 0 20.67 107.87&#10;  L 22.58 107.96"/>
<path stroke="#e0e0e0" d="&#10;  M 67.03 108.01&#10;  L 67.05 113.48&#10;  A 1.47 1.42 -61.8 0 0 67.27 114.25&#10;  L 67.76 115.01"/>
<path stroke="#f4f1f4" stroke-opacity="0.651" d="&#10;  M 67.76 115.01&#10;  L 16.30 115.19"/>
<path stroke="#e9e7e5" stroke-opacity="0.600" d="&#10;  M 20.05 91.21&#10;  L 20.03 60.73"/>
<path stroke="#b0b0b2" stroke-opacity="0.651" d="&#10;  M 74.08 111.61&#10;  L 73.98 114.48&#10;  A 0.53 0.53 0.0 0 1 73.45 115.00&#10;  L 68.41 115.03"/>
<path stroke="#c4c2c4" stroke-opacity="0.651" d="&#10;  M 68.41 115.03&#10;  L 67.76 115.01"/>
<path stroke="#e0e0e0" d="&#10;  M 108.16 101.03&#10;  L 107.97 106.76&#10;  A 1.29 1.29 0.0 0 1 106.73 108.01&#10;  L 101.02 108.26"/>
<path stroke="#e0e0e0" d="&#10;  M 115.08 104.29&#10;  L 115.08 104.95"/>
<path stroke="#f9f6fa" stroke-opacity="0.710" d="&#10;  M 115.08 104.95&#10;  Q 114.75 106.38 115.13 107.48&#10;  A 0.70 0.68 77.8 0 0 115.83 107.94&#10;  L 117.73 107.81"/>
<path stroke="#fefdfe" stroke-opacity="0.761" d="&#10;  M 121.03 111.94&#10;  L 120.93 120.29&#10;  A 0.52 0.52 0.0 0 1 120.42 120.81&#10;  L 111.32 121.03"/>
<path stroke="#f9f6fa" stroke-opacity="0.710" d="&#10;  M 107.85 117.30&#10;  Q 108.11 116.51 107.93 115.68&#10;  A 0.76 0.75 -0.5 0 0 107.32 115.09&#10;  Q 105.85 114.85 104.42 115.17"/>
<path stroke="#cdcacf" stroke-opacity="0.710" d="&#10;  M 115.08 104.95&#10;  Q 115.21 104.72 115.22 104.43"/>
<path stroke="#f2f0f2" stroke-opacity="0.549" d="&#10;  M 34.04 37.47&#10;  L 34.13 93.41&#10;  A 0.58 0.58 0.0 0 0 34.69 93.99&#10;  L 36.93 94.05"/>
<path stroke="#fdfcfd" stroke-opacity="0.569" d="&#10;  M 93.95 36.89&#10;  L 93.88 34.61&#10;  A 0.57 0.56 -1.0 0 0 93.31 34.07&#10;  L 59.69 34.05"/>
<path stroke="#f2f0f2" stroke-opacity="0.549" d="&#10;  M 59.69 34.05&#10;  L 37.25 34.11"/>
<path stroke="#f2f0f2" stroke-opacity="0.549" d="&#10;  M 74.06 50.57&#10;  L 74.09 53.38&#10;  A 0.54 0.54 0.0 0 0 74.62 53.92&#10;  L 76.71 53.95"/>
<path stroke="#f2f0f2" stroke-opacity="0.549" d="&#10;  M 81.06 57.57&#10;  L 80.96 60.44&#10;  A 0.56 0.56 0.0 0 1 80.41 60.99&#10;  L 77.20 61.05"/>
<path stroke="#f2f0f2" stroke-opacity="0.549" d="&#10;  M 73.96 56.71&#10;  L 73.99 54.67&#10;  A 0.65 0.65 0.0 0 0 73.34 54.01&#10;  L 67.63 54.01&#10;  A 0.65 0.64 0.0 0 0 66.98 54.65&#10;  L 66.99 74.49"/>
<path stroke="#e0e0e0" d="&#10;  M 66.99 74.49&#10;  Q 64.26 73.59 61.72 74.12&#10;  A 0.75 0.74 88.3 0 0 61.15 74.73&#10;  Q 60.67 77.77 61.32 80.96"/>
<path stroke="#f2f0f2" stroke-opacity="0.549" d="&#10;  M 61.32 80.96&#10;  L 57.28 81.05"/>
<path stroke="#b9b8ba" stroke-opacity="0.549" d="&#10;  M 61.32 80.96&#10;  L 66.37 80.94&#10;  A 0.56 0.55 -89.5 0 0 66.92 80.39&#10;  L 66.99 74.49"/>
<path stroke="#e9e7e5" stroke-opacity="0.600" d="&#10;  M 88.08 81.28&#10;  L 88.10 87.46&#10;  A 0.57 0.57 0.0 0 1 87.53 88.03&#10;  L 76.95 88.06"/>
</g>
<path fill="#ffffff" d="&#10;  M 20.22 10.61&#10;  Q 19.97 11.50 20.13 12.31&#10;  A 0.74 0.73 -1.6 0 0 20.76 12.90&#10;  Q 21.45 12.99 22.24 12.76&#10;  L 26.37 13.09&#10;  A 0.59 0.58 0.0 0 1 26.91 13.62&#10;  L 27.12 16.56&#10;  L 26.96 20.26&#10;  Q 23.76 19.66 20.65 20.18&#10;  A 0.61 0.60 84.7 0 0 20.14 20.80&#10;  L 20.36 26.99&#10;  L 16.78 27.11&#10;  L 13.69 26.91&#10;  A 0.59 0.59 0.0 0 1 13.14 26.37&#10;  L 12.83 22.03&#10;  Q 13.07 21.36 12.90 20.65&#10;  A 0.79 0.79 0.0 0 0 12.24 20.06&#10;  Q 11.45 19.94 10.80 20.24&#10;  L 7.55 19.90&#10;  A 0.65 0.65 0.0 0 1 6.97 19.25&#10;  L 6.97 7.85&#10;  A 0.90 0.90 0.0 0 1 7.87 6.95&#10;  L 19.26 6.95&#10;  A 0.64 0.63 87.0 0 1 19.89 7.52&#10;  L 20.22 10.61&#10;  Z"/>
<path fill="#cec4cf" fill-opacity="0.298" d="&#10;  M 22.24 12.76&#10;  Q 21.45 12.99 20.76 12.90&#10;  A 0.74 0.73 -1.6 0 1 20.13 12.31&#10;  Q 19.97 11.50 20.22 10.61&#10;  Q 21.22 10.13 22.06 10.22&#10;  A 0.71 0.70 -1.6 0 1 22.68 10.80&#10;  Q 22.87 11.79 22.24 12.76&#10;  Z"/>
<path fill="#c1c1c1" d="&#10;  M 60.97 13.06&#10;  L 60.70 20.02&#10;  L 56.98 20.04&#10;  L 54.73 19.97&#10;  A 0.76 0.76 0.0 0 1 53.99 19.21&#10;  L 53.99 13.89&#10;  A 0.79 0.78 -0.4 0 1 54.77 13.11&#10;  L 60.97 13.06&#10;  Z"/>
<path fill="#ffffff" d="&#10;  M 115.10 16.52&#10;  L 115.01 67.12&#10;  L 108.07 67.07&#10;  L 107.98 22.35&#10;  L 107.84 20.67&#10;  A 0.60 0.60 0.0 0 0 107.24 20.11&#10;  L 75.46 20.06&#10;  L 60.70 20.02&#10;  L 60.97 13.06&#10;  L 114.17 13.12&#10;  A 0.68 0.68 0.0 0 1 114.82 13.60&#10;  Q 115.22 14.89 115.10 16.52&#10;  Z"/>
<path fill="#cec4cf" fill-opacity="0.298" d="&#10;  M 117.88 69.73&#10;  L 115.01 72.99&#10;  L 115.01 67.12&#10;  L 115.10 16.52&#10;  Q 116.49 15.92 117.31 16.13&#10;  A 0.72 0.72 0.0 0 1 117.86 16.82&#10;  L 117.88 69.73&#10;  Z"/>
<path fill="#7a6d5e" fill-opacity="0.196" d="&#10;  M 16.78 27.11&#10;  L 20.36 26.99&#10;  L 26.25 26.95&#10;  A 0.57 0.57 0.0 0 0 26.81 26.39&#10;  L 26.96 20.26&#10;  L 27.12 16.56&#10;  Q 28.41 15.96 29.36 16.22&#10;  A 0.64 0.64 0.0 0 1 29.83 16.84&#10;  L 29.83 29.00&#10;  A 0.86 0.86 0.0 0 1 28.97 29.86&#10;  L 16.72 29.86&#10;  A 0.57 0.57 0.0 0 1 16.17 29.45&#10;  Q 15.86 28.39 16.78 27.11&#10;  Z"/>
<path fill="#cec4cf" fill-opacity="0.298" d="&#10;  M 12.83 22.03&#10;  Q 11.85 22.84 11.01 22.85&#10;  A 0.77 0.77 0.0 0 1 10.28 22.33&#10;  Q 9.98 21.49 10.80 20.24&#10;  Q 11.45 19.94 12.24 20.06&#10;  A 0.79 0.79 0.0 0 1 12.90 20.65&#10;  Q 13.07 21.36 12.83 22.03&#10;  Z"/>
<path fill="#c1c1c1" d="&#10;  M 26.96 20.26&#10;  L 26.81 26.39&#10;  A 0.57 0.57 0.0 0 1 26.25 26.95&#10;  L 20.36 26.99&#10;  L 20.14 20.80&#10;  A 0.61 0.60 84.7 0 1 20.65 20.18&#10;  Q 23.76 19.66 26.96 20.26&#10;  Z"/>
<path fill="#7a6d5e" fill-opacity="0.196" d="&#10;  M 60.70 20.02&#10;  L 75.46 20.06&#10;  Q 81.84 22.62 88.80 22.88&#10;  L 57.91 22.92&#10;  A 0.56 0.56 0.0 0 1 57.36 22.46&#10;  L 56.98 20.04&#10;  L 60.70 20.02&#10;  Z"/>
<path fill="#a4a0ab" fill-opacity="0.216" d="&#10;  M 107.98 22.35&#10;  Q 104.73 23.26 101.24 22.82&#10;  L 95.68 22.80&#10;  L 88.80 22.88&#10;  Q 81.84 22.62 75.46 20.06&#10;  L 107.24 20.11&#10;  A 0.60 0.60 0.0 0 1 107.84 20.67&#10;  L 107.98 22.35&#10;  Z"/>
<path fill="#7a6d5e" fill-opacity="0.196" d="&#10;  M 101.24 22.82&#10;  L 95.68 22.80&#10;  L 101.24 22.82&#10;  Z"/>
<path fill="#ffffff" d="&#10;  M 101.05 30.47&#10;  L 101.06 93.05&#10;  A 0.92 0.91 88.4 0 1 100.20 93.97&#10;  L 97.23 94.15&#10;  Q 95.97 93.82 94.85 93.98&#10;  A 0.74 0.73 -87.6 0 0 94.24 94.55&#10;  Q 93.92 95.92 94.15 97.54&#10;  L 93.77 100.37&#10;  A 0.63 0.62 3.2 0 1 93.16 100.91&#10;  L 82.71 101.05&#10;  L 33.71 101.04&#10;  L 33.83 94.74&#10;  A 0.55 0.55 0.0 0 0 33.27 94.18&#10;  L 27.04 94.26&#10;  L 27.10 34.81&#10;  A 0.81 0.81 0.0 0 1 27.91 34.00&#10;  L 33.33 34.00&#10;  A 0.74 0.73 -0.0 0 0 34.07 33.27&#10;  L 34.07 27.83&#10;  A 0.80 0.80 0.0 0 1 34.87 27.03&#10;  L 100.27 27.03&#10;  A 0.65 0.65 0.0 0 1 100.92 27.65&#10;  L 101.05 30.47&#10;  Z&#10;  M 34.04 37.47&#10;  L 34.13 93.41&#10;  A 0.58 0.58 0.0 0 0 34.69 93.99&#10;  L 36.93 94.05&#10;  L 92.92 94.11&#10;  A 1.22 1.22 0.0 0 0 94.14 92.88&#10;  L 93.95 36.89&#10;  L 93.88 34.61&#10;  A 0.57 0.56 -1.0 0 0 93.31 34.07&#10;  L 59.69 34.05&#10;  L 37.25 34.11&#10;  L 34.48 34.09&#10;  A 0.52 0.52 0.0 0 0 33.95 34.63&#10;  L 34.04 37.47&#10;  Z"/>
<path fill="#a4a0ab" fill-opacity="0.216" d="&#10;  M 97.23 94.15&#10;  L 100.20 93.97&#10;  A 0.92 0.91 88.4 0 0 101.06 93.05&#10;  L 101.05 30.47&#10;  L 102.83 30.17&#10;  A 0.96 0.96 0.0 0 1 103.95 31.12&#10;  L 103.95 96.14&#10;  A 0.75 0.75 0.0 0 1 103.20 96.89&#10;  L 97.81 96.89&#10;  A 0.59 0.58 7.2 0 1 97.24 96.16&#10;  Q 97.44 95.41 97.23 94.15&#10;  Z"/>
<path fill="#68576e" fill-opacity="0.098" d="&#10;  M 59.69 34.05&#10;  Q 63.85 34.87 67.32 36.92&#10;  L 38.08 36.96&#10;  A 0.71 0.71 0.0 0 1 37.37 36.29&#10;  L 37.25 34.11&#10;  L 59.69 34.05&#10;  Z"/>
<path fill="#ebe5ed" fill-opacity="0.137" d="&#10;  M 93.95 36.89&#10;  L 67.32 36.92&#10;  Q 63.85 34.87 59.69 34.05&#10;  L 93.31 34.07&#10;  A 0.57 0.56 -1.0 0 1 93.88 34.61&#10;  L 93.95 36.89&#10;  Z"/>
<path fill="#68576e" fill-opacity="0.098" d="&#10;  M 36.93 94.05&#10;  L 34.69 93.99&#10;  A 0.58 0.58 0.0 0 1 34.13 93.41&#10;  L 34.04 37.47&#10;  L 36.26 37.46&#10;  A 0.61 0.61 0.0 0 1 36.87 38.07&#10;  L 36.93 94.05&#10;  Z"/>
<path fill="#ffffff" d="&#10;  M 47.13 47.17&#10;  Q 47.05 47.25 47.03 48.51&#10;  Q 46.98 51.31 47.11 52.74&#10;  A 1.27 1.26 -2.9 0 1 45.85 54.13&#10;  L 41.51 54.13&#10;  A 1.48 1.48 0.0 0 1 40.03 52.67&#10;  Q 39.92 43.96 40.13 40.48&#10;  C 40.13 40.38 40.12 40.39 40.23 40.29&#10;  C 40.33 40.18 40.32 40.19 40.42 40.19&#10;  Q 43.90 39.97 52.61 40.07&#10;  A 1.48 1.48 0.0 0 1 54.07 41.55&#10;  L 54.08 45.89&#10;  A 1.27 1.26 -87.2 0 1 52.69 47.15&#10;  Q 51.26 47.02 48.46 47.07&#10;  Q 47.20 47.10 47.13 47.17&#10;  Z"/>
<path fill="#ffffff" d="&#10;  M 74.06 50.57&#10;  L 74.09 53.38&#10;  A 0.54 0.54 0.0 0 0 74.62 53.92&#10;  L 76.71 53.95&#10;  L 80.37 54.10&#10;  A 0.57 0.57 0.0 0 1 80.92 54.64&#10;  L 81.06 57.57&#10;  L 80.96 60.44&#10;  A 0.56 0.56 0.0 0 1 80.41 60.99&#10;  L 77.20 61.05&#10;  L 74.64 60.91&#10;  A 0.57 0.57 0.0 0 1 74.10 60.36&#10;  L 73.96 56.71&#10;  L 73.99 54.67&#10;  A 0.65 0.65 0.0 0 0 73.34 54.01&#10;  L 67.63 54.01&#10;  A 0.65 0.64 0.0 0 0 66.98 54.65&#10;  L 66.99 74.49&#10;  Q 64.26 73.59 61.72 74.12&#10;  A 0.75 0.74 88.3 0 0 61.15 74.73&#10;  Q 60.67 77.77 61.32 80.96&#10;  L 57.28 81.05&#10;  L 54.60 80.91&#10;  A 0.62 0.61 -88.5 0 1 54.02 80.29&#10;  L 54.02 67.97&#10;  A 0.98 0.98 0.0 0 1 55.00 66.99&#10;  L 60.33 66.99&#10;  A 0.70 0.70 0.0 0 0 61.03 66.29&#10;  L 61.03 47.91&#10;  A 1.03 1.03 0.0 0 1 62.06 46.88&#10;  L 73.14 46.88&#10;  A 0.74 0.74 0.0 0 1 73.88 47.57&#10;  L 74.06 50.57&#10;  Z"/>
<path fill="#68576e" fill-opacity="0.098" d="&#10;  M 76.71 53.95&#10;  L 74.62 53.92&#10;  A 0.54 0.54 0.0 0 1 74.09 53.38&#10;  L 74.06 50.57&#10;  Q 75.32 49.84 76.26 50.38&#10;  A 0.91 0.91 0.0 0 1 76.72 51.17&#10;  L 76.71 53.95&#10;  Z"/>
<path fill="#c1c1c1" d="&#10;  M 20.07 57.32&#10;  L 20.03 60.73&#10;  L 13.05 60.79&#10;  L 12.96 54.76&#10;  A 0.76 0.75 89.6 0 1 13.71 53.99&#10;  L 19.26 53.99&#10;  A 0.77 0.76 89.2 0 1 20.02 54.74&#10;  L 20.07 57.32&#10;  Z"/>
<path fill="#68576e" fill-opacity="0.098" d="&#10;  M 73.96 56.71&#10;  L 70.85 56.87&#10;  A 1.00 1.00 0.0 0 0 69.89 57.87&#10;  L 69.89 83.18&#10;  A 0.75 0.75 0.0 0 1 69.14 83.93&#10;  L 58.11 83.93&#10;  A 0.81 0.81 0.0 0 1 57.38 83.47&#10;  Q 56.95 82.54 57.28 81.05&#10;  L 61.32 80.96&#10;  L 66.37 80.94&#10;  A 0.56 0.55 -89.5 0 0 66.92 80.39&#10;  L 66.99 74.49&#10;  L 66.98 54.65&#10;  A 0.65 0.64 0.0 0 1 67.63 54.01&#10;  L 73.34 54.01&#10;  A 0.65 0.65 0.0 0 1 73.99 54.67&#10;  L 73.96 56.71&#10;  Z"/>
<path fill="#7a6d5e" fill-opacity="0.196" d="&#10;  M 22.80 93.30&#10;  L 20.05 91.21&#10;  L 20.03 60.73&#10;  L 20.07 57.32&#10;  L 22.02 57.37&#10;  A 0.62 0.62 0.0 0 1 22.62 57.98&#10;  L 22.80 93.30&#10;  Z"/>
<path fill="#68576e" fill-opacity="0.098" d="&#10;  M 77.20 61.05&#10;  L 80.41 60.99&#10;  A 0.56 0.56 0.0 0 0 80.96 60.44&#10;  L 81.06 57.57&#10;  Q 82.12 57.04 83.14 57.21&#10;  A 0.71 0.70 4.9 0 1 83.73 57.90&#10;  L 83.73 63.01&#10;  A 0.48 0.48 0.0 0 1 83.26 63.49&#10;  Q 79.79 63.60 77.20 61.05&#10;  Z"/>
<path fill="#ffffff" d="&#10;  M 20.03 60.73&#10;  L 20.05 91.21&#10;  L 20.15 107.33&#10;  A 0.54 0.54 0.0 0 0 20.67 107.87&#10;  L 22.58 107.96&#10;  L 67.03 108.01&#10;  L 67.05 113.48&#10;  A 1.47 1.42 -61.8 0 0 67.27 114.25&#10;  L 67.76 115.01&#10;  L 16.30 115.19&#10;  L 13.61 114.91&#10;  A 0.56 0.55 2.9 0 1 13.11 114.36&#10;  L 13.05 60.79&#10;  L 20.03 60.73&#10;  Z"/>
<path fill="#c1c1c1" d="&#10;  M 115.01 67.12&#10;  L 115.01 72.99&#10;  Q 115.43 74.55 111.38 73.95&#10;  Q 106.72 75.94 108.07 67.07&#10;  L 115.01 67.12&#10;  Z"/>
<path fill="#76787f" fill-opacity="0.302" d="&#10;  M 117.88 69.73&#10;  L 117.92 76.16&#10;  A 0.64 0.63 -6.2 0 1 117.42 76.78&#10;  Q 109.91 78.38 111.38 73.95&#10;  Q 115.43 74.55 115.01 72.99&#10;  L 117.88 69.73&#10;  Z"/>
<path fill="#c1c1c1" d="&#10;  M 66.99 74.49&#10;  L 66.92 80.39&#10;  A 0.56 0.55 -89.5 0 1 66.37 80.94&#10;  L 61.32 80.96&#10;  Q 60.67 77.77 61.15 74.73&#10;  A 0.75 0.74 88.3 0 1 61.72 74.12&#10;  Q 64.26 73.59 66.99 74.49&#10;  Z"/>
<path fill="#ffffff" d="&#10;  M 88.08 81.28&#10;  L 88.10 87.46&#10;  A 0.57 0.57 0.0 0 1 87.53 88.03&#10;  L 76.95 88.06&#10;  Q 75.70 88.14 74.57 87.72&#10;  A 0.83 0.83 0.0 0 1 74.03 86.94&#10;  L 74.03 81.98&#10;  A 0.94 0.94 0.0 0 1 74.97 81.04&#10;  L 80.00 81.04&#10;  A 1.07 1.07 0.0 0 0 81.07 79.97&#10;  L 81.07 75.22&#10;  A 1.27 1.26 -0.0 0 1 82.34 73.96&#10;  L 86.65 73.96&#10;  A 1.33 1.32 -0.4 0 1 87.98 75.26&#10;  L 88.08 81.28&#10;  Z"/>
<path fill="#7a6d5e" fill-opacity="0.196" d="&#10;  M 76.95 88.06&#10;  L 87.53 88.03&#10;  A 0.57 0.57 0.0 0 0 88.10 87.46&#10;  L 88.08 81.28&#10;  Q 88.47 82.00 88.58 82.75&#10;  A 0.21 0.20 -22.9 0 0 88.91 82.88&#10;  Q 89.10 82.74 89.19 82.68&#10;  A 0.68 0.51 73.9 0 1 89.99 83.29&#10;  Q 90.46 87.00 90.76 90.09&#10;  A 0.68 0.67 87.3 0 1 90.09 90.83&#10;  L 78.37 90.83&#10;  A 0.98 0.98 0.0 0 1 77.39 89.86&#10;  Q 77.38 89.16 76.95 88.06&#10;  Z"/>
<path fill="#cec4cf" fill-opacity="0.298" d="&#10;  M 22.80 93.30&#10;  L 22.58 107.96&#10;  L 20.67 107.87&#10;  A 0.54 0.54 0.0 0 1 20.15 107.33&#10;  L 20.05 91.21&#10;  L 22.80 93.30&#10;  Z"/>
<path fill="#c1c1c1" d="&#10;  M 33.71 101.04&#10;  L 30.22 101.07&#10;  L 27.65 100.95&#10;  A 0.57 0.57 0.0 0 1 27.11 100.39&#10;  L 27.04 94.26&#10;  L 33.27 94.18&#10;  A 0.55 0.55 0.0 0 1 33.83 94.74&#10;  L 33.71 101.04&#10;  Z"/>
<path fill="#cec4cf" fill-opacity="0.298" d="&#10;  M 83.05 104.01&#10;  L 82.71 101.05&#10;  L 93.16 100.91&#10;  A 0.63 0.62 3.2 0 0 93.77 100.37&#10;  L 94.15 97.54&#10;  L 96.33 97.18&#10;  A 0.46 0.46 0.0 0 1 96.86 97.64&#10;  L 96.86 103.37&#10;  A 0.44 0.43 -90.0 0 1 96.43 103.81&#10;  L 83.05 104.01&#10;  Z"/>
<path fill="#7a6d5e" fill-opacity="0.196" d="&#10;  M 33.71 101.04&#10;  L 82.71 101.05&#10;  L 83.05 104.01&#10;  L 30.92 103.97&#10;  A 0.84 0.84 0.0 0 1 30.15 102.81&#10;  Q 30.49 101.97 30.22 101.07&#10;  L 33.71 101.04&#10;  Z"/>
<path fill="#c1c1c1" d="&#10;  M 108.16 101.03&#10;  L 107.97 106.76&#10;  A 1.29 1.29 0.0 0 1 106.73 108.01&#10;  L 101.02 108.26&#10;  L 101.10 101.65&#10;  A 0.50 0.50 0.0 0 1 101.59 101.15&#10;  L 108.16 101.03&#10;  Z"/>
<path fill="#ffffff" d="&#10;  M 115.08 104.29&#10;  L 115.08 104.95&#10;  Q 114.75 106.38 115.13 107.48&#10;  A 0.70 0.68 77.8 0 0 115.83 107.94&#10;  L 117.73 107.81&#10;  L 120.40 108.06&#10;  A 0.58 0.57 -88.9 0 1 120.92 108.61&#10;  L 121.03 111.94&#10;  L 120.93 120.29&#10;  A 0.52 0.52 0.0 0 1 120.42 120.81&#10;  L 111.32 121.03&#10;  L 108.68 120.96&#10;  A 0.59 0.57 87.7 0 1 108.12 120.43&#10;  L 107.85 117.30&#10;  Q 108.11 116.51 107.93 115.68&#10;  A 0.76 0.75 -0.5 0 0 107.32 115.09&#10;  Q 105.85 114.85 104.42 115.17&#10;  L 101.65 114.94&#10;  A 0.57 0.57 0.0 0 1 101.12 114.38&#10;  L 101.02 108.26&#10;  L 106.73 108.01&#10;  A 1.29 1.29 0.0 0 0 107.97 106.76&#10;  L 108.16 101.03&#10;  L 114.30 101.08&#10;  A 0.57 0.57 0.0 0 1 114.86 101.61&#10;  L 115.08 104.29&#10;  Z"/>
<path fill="#eae1ef" fill-opacity="0.420" d="&#10;  M 117.73 107.81&#10;  L 115.83 107.94&#10;  A 0.70 0.68 77.8 0 1 115.13 107.48&#10;  Q 114.75 106.38 115.08 104.95&#10;  Q 115.21 104.72 115.22 104.43&#10;  Q 116.27 104.06 117.28 104.18&#10;  A 0.73 0.72 88.3 0 1 117.89 104.76&#10;  Q 118.17 106.21 117.73 107.81&#10;  Z"/>
<path fill="#c1c1c1" d="&#10;  M 115.22 104.43&#10;  Q 115.21 104.72 115.08 104.95&#10;  L 115.08 104.29&#10;  Q 115.16 104.33 115.22 104.43&#10;  Z"/>
<path fill="#c1c1c1" d="&#10;  M 74.08 111.61&#10;  L 73.98 114.48&#10;  A 0.53 0.53 0.0 0 1 73.45 115.00&#10;  L 68.41 115.03&#10;  L 67.76 115.01&#10;  L 67.27 114.25&#10;  A 1.47 1.42 -61.8 0 1 67.05 113.48&#10;  L 67.03 108.01&#10;  L 73.36 108.10&#10;  A 0.56 0.56 0.0 0 1 73.91 108.63&#10;  L 74.08 111.61&#10;  Z"/>
<path fill="#fcfafd" fill-opacity="0.522" d="&#10;  M 111.32 121.03&#10;  L 120.42 120.81&#10;  A 0.52 0.52 0.0 0 0 120.93 120.29&#10;  L 121.03 111.94&#10;  Q 121.95 110.85 123.36 111.11&#10;  A 0.72 0.72 0.0 0 1 123.95 111.82&#10;  L 123.95 123.38&#10;  A 0.58 0.58 0.0 0 1 123.37 123.96&#10;  L 111.75 123.96&#10;  A 0.65 0.64 86.5 0 1 111.11 123.39&#10;  Q 110.98 122.31 111.32 121.03&#10;  Z"/>
<path fill="#76787f" fill-opacity="0.302" d="&#10;  M 68.30 117.90&#10;  Q 67.91 116.57 68.41 115.03&#10;  L 73.45 115.00&#10;  A 0.53 0.53 0.0 0 0 73.98 114.48&#10;  L 74.08 111.61&#10;  Q 75.41 110.99 76.36 111.28&#10;  A 0.76 0.75 -81.8 0 1 76.90 112.01&#10;  L 76.90 117.15&#10;  A 0.64 0.64 0.0 0 1 76.27 117.79&#10;  L 68.30 117.90&#10;  Z"/>
<path fill="#cec4cf" fill-opacity="0.298" d="&#10;  M 67.76 115.01&#10;  L 68.41 115.03&#10;  Q 67.91 116.57 68.30 117.90&#10;  L 16.80 117.86&#10;  A 0.64 0.63 -5.4 0 1 16.17 117.35&#10;  Q 15.96 116.30 16.30 115.19&#10;  L 67.76 115.01&#10;  Z"/>
<path fill="#eae1ef" fill-opacity="0.420" d="&#10;  M 107.85 117.30&#10;  Q 106.37 118.41 104.74 117.92&#10;  A 0.80 0.79 -85.0 0 1 104.18 117.25&#10;  Q 104.08 116.29 104.42 115.17&#10;  Q 105.85 114.85 107.32 115.09&#10;  A 0.76 0.75 -0.5 0 1 107.93 115.68&#10;  Q 108.11 116.51 107.85 117.30&#10;  Z"/>
</svg>